<?xml version="1.0" encoding="iso-8859-1"?>
<!-- Generator: Adobe Illustrator 19.0.0, SVG Export Plug-In . SVG Version: 6.00 Build 0)  -->
<svg version="1.1" id="Capa_1" xmlns="http://www.w3.org/2000/svg" xmlns:xlink="http://www.w3.org/1999/xlink" x="0px" y="0px"
	 viewBox="0 0 512 512" style="enable-background:new 0 0 512 512;" xml:space="preserve">
<g>
	<g>
		<path fill="#212365" d="M0,61v90h90V61H0z M60,121H30V91h30V121z"/>
	</g>
</g>
<g>
	<g>
		<path fill="#212365" d="M121,61v90h391V61H121z M482,121H151V91h331V121z"/>
	</g>
</g>
<g>
	<g>
		<path fill="#212365" d="M0,211v90h90v-90H0z M60,271H30v-30h30V271z"/>
	</g>
</g>
<g>
	<g>
		<path fill="#212365" d="M121,211v90h391v-90H121z M482,271H151v-30h331V271z"/>
	</g>
</g>
<g>
	<g>
		<path fill="#212365" d="M0,361v90h90v-90H0z M60,421H30v-30h30V421z"/>
	</g>
</g>
<g>
	<g>
		<path fill="#212365" d="M121,361v90h391v-90H121z M482,421H151v-30h331V421z"/>
	</g>
</g>
<g>
</g>
<g>
</g>
<g>
</g>
<g>
</g>
<g>
</g>
<g>
</g>
<g>
</g>
<g>
</g>
<g>
</g>
<g>
</g>
<g>
</g>
<g>
</g>
<g>
</g>
<g>
</g>
<g>
</g>
</svg>
