<svg height="512pt" fill="#8c8c8c" viewBox="0 0 512 512" width="512pt" xmlns="http://www.w3.org/2000/svg"><path d="m512 60v210c0 33.085938-26.914062 60-60 60h-34v-40h34c11.027344 0 20-8.972656 20-20v-107h-53v20h-40v-80h40v20h53v-63c0-11.027344-8.972656-20-20-20h-162v83h20v40h-80v-40h20v-83h-55v-40h257c33.085938 0 60 26.914062 60 60zm-222 172h-40v220c0 11.027344-8.972656 20-20 20h-33v40h33c33.085938 0 60-26.914062 60-60v-122h57v-40h-57zm-149 21h-101v-193c0-11.027344 8.972656-20 20-20h35v-40h-35c-33.085938 0-60 26.914062-60 60v392c0 33.085938 26.914062 60 60 60h36v-40h-36c-11.027344 0-20-8.972656-20-20v-159h101v19h40v-80h-40zm0 0"/></svg>