<svg height="512pt" fill="#8c8c8c" viewBox="0 0 511 512" width="512pt" xmlns="http://www.w3.org/2000/svg"><path d="m452.183594 0h-391.710938c-33.070312 0-59.972656 26.902344-59.972656 59.972656v298.867188c0 33.066406 26.902344 59.972656 59.972656 59.972656h226.785156v93.15625l59.972657-25.460938 59.976562 25.492188v-93.1875h44.976563c33.070312 0 59.972656-26.90625 59.972656-59.972656v-298.867188c0-33.070312-26.902344-59.972656-59.972656-59.972656zm-148.90625 301.859375c-.011719-.277344-.023438-.542969-.023438-.796875v-5.699219l5.546875-1.160156c.480469-.101563.957031-.222656 1.425781-.355469 7.007813-2.015625 13.144532-6.425781 17.273438-12.417968l3.375-4.894532 5.757812 2.042969c6.832032 2.425781 14.359376 2.425781 21.191407.003906l5.765625-2.046875 3.375 4.894532c4.132812 5.992187 10.265625 10.402343 17.277344 12.417968l5.972656 1.71875v5.066406c0 6.25 1.203125 14.824219 6.726562 21.3125l2.972656 3.859376-3.488281 4.441406c-.339843.429687-.65625.875-.960937 1.332031-2.394532 3.628906-5.25 9.515625-5.25 16.9375v7.625l-5.976563 1.714844c-7.007812 2.019531-13.140625 6.429687-17.273437 12.417969l-3.375 4.898437-5.757813-2.042969c-6.839843-2.429687-14.363281-2.429687-21.191406-.003906l-5.765625 2.046875-3.375-4.898437c-4.128906-5.988282-10.265625-10.398438-17.277344-12.417969l-5.96875-1.714844v-5.0625c0-8.515625-2.070312-15.316406-6.332031-20.792969l-3.421875-4.449218 3.453125-4.519532c5.746094-7.425781 5.460937-15.542968 5.324219-19.457031zm43.960937 141.210937-19.996093 8.488282v-34.761719c.140624.003906.277343.011719.417968.011719 3.527344 0 7.101563-.589844 10.5625-1.820313l9.011719-3.195312 9.003906 3.195312c3.601563 1.277344 7.316407 1.847657 10.984375 1.796875v34.78125zm124.9375-84.230468c0 11.019531-8.96875 19.988281-19.992187 19.988281h-27.132813c3.359375-5.46875 5.273438-11.941406 5.144531-18.582031v-8.265625l5.292969-6.746094c8.929688-11.382813 8.953125-27.269531.070313-38.671875l-5.363282-6.964844v-10.933594c0-14.097656-8.996093-25.792968-22.921874-29.796874l-9.101563-2.613282-5.3125-7.707031c-8.09375-11.746094-23.152344-16.605469-36.617187-11.828125l-9.007813 3.195312-9.007813-3.195312c-13.46875-4.78125-28.527343.082031-36.621093 11.828125l-5.085938 7.378906-8.679687 1.820313c-.480469.097656-.953125.21875-1.425782.351562-13.941406 4.011719-23.410156 16.648438-23.144531 30.820313v11.9375l-4.386719 5.734375c-8.839843 11.371094-8.832031 27.191406.023438 38.558594l5.363281 6.96875v11.125c-.109375 5.710937 1.355469 11.019531 4.082031 15.589843h-207.878906c-11.023437 0-19.992187-8.96875-19.992187-19.992187v-298.867188c0-11.023437 8.96875-19.992187 19.992187-19.992187h391.710938c11.023437 0 19.992187 8.96875 19.992187 19.992187zm-391.710937-278.875h351.730468v39.980468h-351.730468zm0 79.964844h271.765625v39.980468h-271.765625zm0 79.960937h141.824218v39.984375h-141.824218zm0 0"/></svg>