<svg height="512pt" fill="#8c8c8c" viewBox="0 0 512 512" width="512pt" xmlns="http://www.w3.org/2000/svg"><path d="m451.601562 373.972656c1.332032-7.484375 2.707032-15.140625 4.394532-22.660156h56.003906v-170.664062h-197.613281v39.921874h-154.699219v-39.921874h-39.921875v39.921874h-39.921875v-160.6875c0-11.007812 8.953125-19.960937 19.960938-19.960937 11.007812 0 19.960937 8.953125 19.960937 19.960937h39.921875c0-33.019531-26.863281-59.882812-59.882812-59.882812-33.019532 0-59.882813 26.863281-59.882813 59.882812v160.6875h-39.921875v39.921876c17.816406 0 43.046875 32.722656 60.414062 124.5625 4.703126 24.867187 17.914063 46.328124 36.261719 61.597656-6.0625 14.339844-20.273437 24.425781-36.792969 24.425781v39.921875c31.550782 0 58.882813-18.398438 71.839844-45.027344 10.25 3.316406 21.140625 5.105469 32.378906 5.105469h181.800782c14.734375 0 28.863281-3.078125 41.738281-8.648437 12.191406 28.527343 40.527344 48.570312 73.457031 48.570312v-39.921875c-19.445312 0-35.679687-13.980469-39.203125-32.417969 13.863281-14.402344 23.761719-32.808594 27.695313-53.605468.6875-3.636719 1.347656-7.335938 2.011718-11.082032zm-97.292968-153.402344h117.769531v90.820313h-117.769531zm-190.207032 210.585938c-31.484374 0-58.59375-22.507812-64.460937-53.519531-7.617187-40.273438-17.414063-73.308594-29.128906-98.191407-3.261719-6.929687-6.691407-13.238281-10.285157-18.953124h254.160157v90.820312h100.8125c-1.046875 5.292969-1.984375 10.519531-2.902344 15.664062-.640625 3.601563-1.273437 7.160157-1.933594 10.660157-5.867187 31.011719-32.976562 53.519531-64.460937 53.519531zm0 0"/></svg>